<svg xmlns="http://www.w3.org/2000/svg" viewBox="0 0 65.5 28.36"><defs><style>.cls-1{fill:#fff;}</style></defs><title>Asset 1</title><g id="Layer_2" data-name="Layer 2"><g id="Layer_1-2" data-name="Layer 1"><polygon class="cls-1" points="65.5 2.55 65.5 0 39.84 0 35.87 0 35.59 0 35.59 12.48 29.92 12.48 29.92 0 29.63 0 25.66 0 0 0 0 2.55 25.66 2.55 25.66 12.48 7.8 12.48 7.8 15.03 25.66 15.03 25.66 25.8 0 25.8 0 28.36 25.66 28.36 29.63 28.36 29.92 28.36 29.92 15.03 35.59 15.03 35.59 28.36 35.87 28.36 39.84 28.36 65.5 28.36 65.5 25.8 39.84 25.8 39.84 15.03 57.7 15.03 57.7 12.48 39.84 12.48 39.84 2.55 65.5 2.55"/></g></g></svg>